<svg
  width='48'
  heigh='48'
	version="1.1"
	xmlns="http://www.w3.org/2000/svg"
	x="0"
	y="0"
	viewBox="0 0 141.7 141.7"
>
	<path
		id="XMLID_33_"
		fill="violet"
		d="M69.8,113.8c-13.1-6.9-14-24.3-8.1-30.4c2.4-2.5,4.4-5,2.4-7.1c-5.3-5.7-3.9-11.5-3.9-13.4    c-0.1-8,7-17.2,16.2-20.3c9.2-3.1,20.7-2,20.7-2c0.7-12.4,1.9-20.5,2.2-23.5c0.1-1-0.7-1.4-0.7-1.4C94.6,13.5,78.4,4.5,63.3,4.3    h-0.1c-15.1,0.3-31.3,9.2-35.2,11.4c0,0-0.9,0.4-0.7,1.4c0.3,3,1.3,9.7,2,21.9c-2.2,0-5.9,0-6.5,0c-0.8-1.5-0.8-3.9-1.5-4.4    c-0.7-0.4-5.8-0.4-6.1,0.2c-0.3,0.5-2.8,6-2.7,7v0c-0.1,0.9,2.4,6.5,2.7,7c0.4,0.5,5.5,0.6,6.1,0.2c0.7-0.5,0.7-2.9,1.5-4.4    c0.6-0.1,4.6,0,6.7,0c0.3,5.9,0.5,12.1,0.5,18.3c0,1,0,2.9-0.1,5.4c-2.1,0-4.5,0-5,0c-0.7-1.5-0.8-3.9-1.4-4.4    c-0.7-0.4-5.8-0.4-6.1,0.2c-0.4,0.5-2.8,6-2.7,7v0c-0.1,0.9,2.4,6.5,2.7,7c0.3,0.5,5.4,0.6,6.1,0.1c0.7-0.5,0.7-2.9,1.4-4.4    c0.4-0.1,2.8,0,4.8,0c-0.2,7.4-0.5,17-0.6,24.6c-2,0-4.2,0-4.6,0c-0.8-1.5-0.8-3.9-1.5-4.4c-0.7-0.5-5.8-0.4-6.1,0.1    c-0.4,0.5-2.8,6-2.7,7v0c-0.1,0.9,2.4,6.5,2.7,7c0.3,0.5,5.4,0.6,6.1,0.1c0.6-0.5,0.7-2.9,1.5-4.4c0.4-0.1,2.6,0,4.6,0    c0.1,3.3,0.2,5.7,0.6,6.7c1,3.1,4.8,6.9,8.5,10.3c8.2,7.6,16.1,15.8,24.5,15.8h0.1c7.1,0,17.1-8.2,25.4-15.8    c0.4-0.4,0.3-0.2,0.6-0.7C89.2,119.3,80.8,119.6,69.8,113.8z M125.2,81c-1.9-2.9-4.6-5.2-8.2-6.8c-3.6-1.6-9-2.8-16.3-3.7    c-4.8-0.6-10.9-1.3-12.3-2.1c-1.4-0.8-2.2-1.9-2.2-3.4c0-1.4,0.6-2.5,1.7-3.5c1.1-0.9,5.9-1.4,8.4-1.4c2.4,0,4.5,0.6,6.3,1.9    c1.3,0.9,2.2,2.4,2.7,4.4c0,0,3.6,4.5,11.4,4c11.4-0.8,9.4-6.2,9.4-6.2c-1.4-4-3.2-7.2-5.4-9.6c-2.2-2.4-4.9-4.1-8.2-5.2    c-3.3-1.1-8.3-1.7-15.1-1.7c-6.5,0-11.6,0.7-15.5,2.2c-3.9,1.4-6.9,3.6-9.1,6.6c-2.2,2.9-3.3,6.4-3.3,10.5c0,3.7,1,7,3,9.9    c2,2.9,4.5,5,7.5,6.2c3,1.2,8.3,2.5,15.9,4c5.1,1,8.3,1.8,9.4,2.4c1.7,0.9,2.5,2.2,2.5,3.9c0,1.5-0.6,2.8-1.9,3.8    c-1.6,1.4-3.9,2-6.9,2c-2.7,0-7.8-0.6-9.4-1.8c-1.6-1.2,0.1-3.2-0.8-6c0,0-3-7.2-12.9-6.3c-9.9,0.9-8.9,8.5-8.9,8.5    c1.3,5.9,4.1,10.5,8.6,13.7c4.4,3.2,11.9,4.8,22.4,4.8c7.4,0,13.3-1,17.6-3c4.3-2,7.5-4.7,9.4-8c2-3.4,3-6.8,3-10.4    C128,87.1,127.1,83.9,125.2,81z"
	/>
</svg>
